<?xml version="1.0" standalone="no"?>
<!DOCTYPE svg PUBLIC "-//W3C//DTD SVG 20010904//EN"
 "http://www.w3.org/TR/2001/REC-SVG-20010904/DTD/svg10.dtd">
<svg version="1.0" xmlns="http://www.w3.org/2000/svg"
 width="16.000000pt" height="16.000000pt" viewBox="0 0 16.000000 16.000000"
 preserveAspectRatio="xMidYMid meet">
<metadata>
Created by potrace 1.11, written by Peter Selinger 2001-2013
</metadata>
<g transform="translate(0.000000,16.000000) scale(0.000959,-0.000959)"
fill="#000000" stroke="none">
<path d="M1607 12983 c-4 -3 -7 -249 -7 -545 l0 -538 1505 0 1505 0 0 -4100 0
-4100 640 0 640 0 0 4100 0 4100 1510 0 1510 0 0 545 0 545 -3648 0 c-2007 0
-3652 -3 -3655 -7z"/>
<path d="M12216 12960 c-709 -44 -1307 -297 -1790 -760 -327 -314 -541 -692
-629 -1115 -35 -167 -47 -287 -47 -484 0 -349 62 -626 204 -916 222 -454 601
-819 1181 -1138 173 -95 339 -169 875 -391 656 -272 893 -391 1129 -568 208
-156 343 -313 441 -513 96 -194 133 -370 133 -625 0 -173 -13 -279 -48 -420
-137 -537 -578 -946 -1130 -1046 -146 -26 -448 -24 -605 4 -375 68 -656 239
-883 539 -150 197 -243 479 -312 937 -13 87 -25 159 -27 161 -4 3 -1351 -295
-1357 -300 -7 -8 47 -290 85 -440 363 -1454 1450 -2261 2941 -2184 737 38
1349 297 1851 783 253 245 422 474 563 761 211 430 311 960 279 1473 -58 921
-469 1564 -1333 2084 -277 166 -437 240 -1154 533 -770 315 -955 412 -1164
612 -208 200 -299 398 -299 651 0 269 89 494 272 687 278 294 657 433 1116
411 360 -18 615 -114 823 -313 125 -120 263 -299 383 -501 21 -34 41 -60 44
-58 225 132 1078 639 1081 642 13 13 -207 339 -347 514 -96 119 -310 334 -422
424 -375 300 -815 484 -1292 540 -165 20 -392 26 -562 16z"/>
</g>
</svg>
