<?xml version="1.0" standalone="no"?>
<!DOCTYPE svg PUBLIC "-//W3C//DTD SVG 20010904//EN"
 "http://www.w3.org/TR/2001/REC-SVG-20010904/DTD/svg10.dtd">
<svg version="1.0" xmlns="http://www.w3.org/2000/svg"
 width="16.000000pt" height="16.000000pt" viewBox="0 0 16.000000 16.000000"
 preserveAspectRatio="xMidYMid meet">
<metadata>
Created by potrace 1.11, written by Peter Selinger 2001-2013
</metadata>
<g transform="translate(0.000000,16.000000) scale(0.000959,-0.000959)"
fill="#000000" stroke="none">
<path d="M1607 12983 c-4 -3 -7 -249 -7 -545 l0 -538 1505 0 1505 0 0 -4100 0
-4100 640 0 640 0 0 4100 0 4100 1510 0 1510 0 0 545 0 545 -3648 0 c-2007 0
-3652 -3 -3655 -7z"/>
<path d="M12224 12960 c-724 -42 -1319 -295 -1808 -770 -379 -368 -599 -813
-656 -1328 -17 -149 -8 -505 15 -632 121 -664 511 -1177 1220 -1603 210 -127
437 -233 990 -462 690 -287 903 -394 1158 -580 107 -79 270 -241 336 -335 162
-229 234 -480 233 -805 -1 -437 -137 -779 -422 -1065 -199 -199 -438 -330
-703 -384 -458 -95 -960 8 -1279 263 -159 126 -308 311 -382 473 -79 174 -151
452 -194 756 -11 73 -21 135 -23 136 -5 5 -1350 -292 -1357 -299 -9 -9 36
-247 78 -422 146 -594 411 -1085 786 -1455 132 -130 210 -193 374 -303 414
-276 868 -417 1435 -444 507 -25 975 54 1393 235 608 262 1143 788 1411 1384
238 530 309 1203 191 1802 -159 796 -665 1385 -1592 1849 -215 107 -255 125
-868 376 -554 226 -692 288 -843 376 -174 103 -360 265 -444 388 -46 67 -98
176 -125 259 -20 66 -23 95 -23 235 0 187 18 271 88 420 154 327 511 579 921
650 194 33 448 29 640 -10 171 -36 342 -111 467 -204 135 -103 308 -309 439
-527 35 -58 66 -107 70 -109 8 -5 1084 632 1088 645 9 25 -236 380 -383 555
-176 209 -372 384 -595 531 -374 246 -767 373 -1256 404 -172 11 -183 11 -380
0z"/>
</g>
</svg>
