<?xml version="1.0" standalone="no"?>
<!DOCTYPE svg PUBLIC "-//W3C//DTD SVG 20010904//EN"
 "http://www.w3.org/TR/2001/REC-SVG-20010904/DTD/svg10.dtd">
<svg version="1.0" xmlns="http://www.w3.org/2000/svg"
 width="16.000000pt" height="16.000000pt" viewBox="0 0 16.000000 16.000000"
 preserveAspectRatio="xMidYMid meet">
<metadata>
Created by potrace 1.11, written by Peter Selinger 2001-2013
</metadata>
<g transform="translate(0.000000,16.000000) scale(0.000959,-0.000959)"
fill="#000000" stroke="none">
<path d="M7594 11205 c-4 -11 -10 -12 -18 -6 -7 6 -17 6 -26 1 -9 -5 -19 -5
-27 2 -7 6 -13 6 -13 1 0 -13 -43 -11 -52 2 -5 6 -8 5 -8 -3 0 -7 -4 -10 -10
-7 -7 4 -10 -515 -10 -1549 l0 -1556 406 0 406 0 -5 543 c-3 298 -8 553 -10
567 -3 14 -8 65 -12 114 -4 50 -9 98 -11 109 -2 10 -6 46 -9 80 -3 34 -8 73
-10 87 -11 71 -24 194 -21 197 2 2 18 -40 35 -93 57 -173 277 -758 346 -919 7
-16 56 -142 110 -280 53 -137 111 -285 128 -328 l31 -77 406 0 405 1 -1 1543
c0 848 -3 1547 -7 1552 -3 6 -163 9 -404 9 l-398 0 1 -450 c0 -390 5 -551 19
-705 2 -19 6 -71 10 -115 3 -44 8 -96 10 -115 3 -19 7 -57 9 -85 7 -71 16
-154 21 -195 2 -19 7 -64 10 -100 5 -64 4 -62 -40 75 -85 266 -213 631 -305
865 -50 129 -138 359 -196 510 -124 326 -123 323 -146 317 -10 -3 -21 -1 -24
4 -3 5 -13 5 -25 -1 -14 -8 -19 -7 -19 2 0 8 -3 9 -8 3 -8 -12 -32 -13 -49 -2
-7 5 -13 4 -13 0 0 -10 -113 -9 -128 1 -6 3 -13 2 -17 -4 -4 -7 -12 -7 -25 0
-10 6 -21 7 -24 2 -5 -8 -74 -7 -83 2 -3 3 -14 1 -24 -4 -12 -7 -20 -7 -24 0
-4 6 -12 7 -18 3 -19 -12 -37 -12 -37 -1 0 6 -5 7 -12 2 -19 -14 -73 -11 -70
4 3 17 -8 15 -14 -3z"/>
<path d="M827 11192 c-2 -4 -3 -171 -2 -372 l0 -365 40 -1 c22 -1 553 -2 1180
-3 l1140 -1 0 -2812 0 -2813 423 -3 422 -2 0 2815 0 2815 695 -3 c382 -1 695
-6 695 -10 0 -11 -48 -215 -95 -407 -19 -74 -36 -146 -39 -160 -2 -14 -12 -54
-21 -90 -8 -36 -18 -74 -20 -85 -12 -54 -17 -75 -17 -82 0 -5 -5 -19 -10 -33
-5 -14 -12 -36 -15 -50 -2 -14 -19 -88 -38 -165 -19 -77 -52 -216 -75 -310
-43 -176 -120 -499 -125 -525 -2 -8 -24 -100 -49 -205 -26 -104 -48 -200 -51
-212 l-5 -21 434 0 434 -1 13 72 c6 40 21 128 33 197 l22 125 278 0 c153 0
280 -3 283 -8 2 -4 6 -22 9 -40 2 -18 6 -43 9 -57 2 -14 7 -38 9 -55 2 -16 8
-50 12 -75 4 -25 8 -52 9 -60 1 -8 5 -34 9 -57 l8 -42 434 1 c396 0 434 2 430
17 -4 14 -17 75 -30 147 -3 12 -14 66 -26 120 -12 55 -24 108 -26 119 -2 11
-6 29 -8 40 -29 142 -38 185 -46 215 -5 19 -12 51 -15 70 -3 19 -15 73 -25
120 -10 47 -21 96 -24 110 -5 25 -76 366 -80 385 -2 6 -6 28 -10 50 -4 22 -12
54 -16 70 -5 17 -11 44 -14 60 -2 17 -18 93 -35 171 -34 160 -61 288 -67 324
-3 14 -9 41 -14 60 -5 19 -12 51 -15 70 -3 19 -10 51 -15 70 -5 19 -12 49 -15
65 -11 66 -17 92 -35 171 -11 45 -22 96 -25 112 -3 17 -16 81 -29 144 -14 62
-34 160 -46 218 -12 58 -25 121 -31 141 l-9 35 -2862 0 c-2285 -1 -2862 -4
-2860 -13 3 -16 2 -16 -41 2 -20 8 -38 11 -40 7z m40 -18 c19 -3 49 -23 35
-24 -8 0 -10 -5 -5 -12 20 -32 11 -59 -13 -40 -5 4 -1 -1 9 -10 11 -10 14 -18
8 -18 -7 0 -9 -5 -4 -12 12 -20 14 -48 4 -48 -6 0 -13 5 -17 11 -5 8 -10 6
-16 -6 -7 -11 -6 -21 2 -28 8 -9 10 -8 5 6 -8 19 2 22 25 7 11 -7 11 -10 2
-10 -8 0 -10 -5 -5 -12 12 -21 14 -48 2 -48 -6 0 -7 -6 -2 -12 4 -7 8 -38 9
-70 1 -50 -2 -57 -23 -67 -28 -13 -29 -24 -5 -42 16 -13 16 -13 2 5 -15 19
-13 22 16 29 4 1 9 -8 10 -20 2 -13 -1 -23 -7 -23 -6 0 -7 -5 -2 -12 4 -7 8
-67 8 -134 l0 -120 -36 0 c-22 0 -36 5 -36 13 0 7 4 13 8 13 4 0 6 8 4 18 -2
9 -4 17 -5 17 -1 0 -3 10 -6 23 -3 15 1 22 12 22 8 0 12 5 9 10 -4 6 -9 8 -13
6 -4 -2 -7 47 -7 110 -1 63 2 114 6 114 4 0 6 8 4 18 -2 9 -4 17 -5 17 -1 0
-3 10 -6 23 -3 15 1 22 12 22 8 0 12 5 9 10 -4 6 -10 8 -13 6 -7 -4 -9 116 -2
139 1 6 1 12 0 15 -1 3 -3 33 -4 67 -2 42 1 60 8 55 6 -3 16 -7 23 -8z m5248
-868 c4 -49 8 -98 10 -110 2 -11 6 -55 10 -97 3 -42 7 -87 10 -100 2 -13 7
-55 11 -94 4 -38 8 -72 9 -75 1 -3 5 -36 9 -75 4 -38 10 -83 12 -100 2 -16 6
-52 9 -80 4 -27 13 -92 21 -143 8 -52 19 -126 24 -165 6 -40 13 -84 16 -99 l6
-28 -177 0 -177 0 6 33 c3 17 8 43 11 57 3 14 7 39 10 55 2 17 7 44 10 60 14
78 18 101 20 120 2 11 12 72 24 135 11 63 23 133 26 155 11 74 36 240 40 265
2 14 7 52 10 85 4 33 8 71 10 85 2 14 7 52 11 84 3 33 8 67 9 75 2 9 4 25 4
35 2 42 9 6 16 -78z"/>
<path d="M844 11123 c1 -29 5 -55 9 -59 3 -4 3 -14 -2 -23 -11 -23 -7 -119 6
-132 12 -12 6 -42 -7 -34 -9 6 -8 -14 1 -30 4 -5 4 -19 2 -30 -11 -46 -9 -201
2 -220 13 -21 9 -49 -5 -40 -9 6 -7 -21 2 -31 4 -3 4 -18 2 -32 -5 -26 -5 -26
10 -7 15 18 15 18 9 1 -4 -13 -2 -17 8 -14 11 4 14 30 15 119 0 107 -1 116
-24 141 -23 25 -23 28 -8 50 9 13 20 22 23 20 11 -3 11 108 0 115 -4 2 -4 10
1 16 11 16 9 42 -3 42 -19 0 -35 17 -33 33 4 23 20 33 34 21 14 -11 14 7 1 29
-5 6 -5 12 -1 12 4 0 0 8 -9 18 -19 21 -11 38 9 21 9 -8 12 -6 9 8 -2 10 -4
20 -5 23 -1 3 -2 9 -1 13 1 5 -3 6 -9 2 -5 -3 -10 0 -10 7 0 10 -2 10 -9 -1
-7 -11 -9 -11 -13 0 -3 8 -4 -9 -4 -38z m37 10 c7 -10 9 -15 5 -11 -5 4 -15 3
-22 -3 -11 -9 -13 2 -5 29 2 6 10 1 22 -15z m-6 -61 c-3 -3 0 -10 5 -17 7 -8
5 -12 -5 -12 -7 0 -14 3 -13 6 0 3 -1 8 -2 11 -1 3 -3 13 -5 23 -3 15 -1 16
11 6 8 -6 12 -14 9 -17z m8 -106 c8 9 3 -19 -7 -35 -5 -8 -3 -16 5 -22 9 -6
10 -9 2 -9 -16 0 -25 17 -28 51 -2 22 0 27 10 19 6 -5 14 -7 18 -4z m3 -119
c0 -27 -5 -44 -12 -44 -7 0 -11 8 -9 18 2 10 0 21 -5 24 -9 6 9 45 20 45 3 0
6 -19 6 -43z m-1 -191 c1 -30 -3 -52 -7 -50 -4 3 -8 1 -8 -5 0 -5 6 -12 13
-14 9 -4 9 -6 0 -6 -20 -2 -27 21 -28 91 -1 62 0 67 14 53 10 -10 16 -35 16
-69z m1 -119 c0 -20 -5 -34 -13 -34 -7 0 -10 4 -7 8 2 4 0 10 -6 14 -6 4 -5
13 3 25 17 28 23 25 23 -13z"/>
<path d="M863 10945 c0 -8 4 -12 9 -9 5 3 6 10 3 15 -9 13 -12 11 -12 -6z"/>
<path d="M865 10861 c-3 -5 -2 -12 3 -15 5 -3 9 1 9 9 0 17 -3 19 -12 6z"/>
<path d="M865 10665 c0 -30 2 -52 5 -49 7 7 7 94 0 99 -3 2 -5 -21 -5 -50z"/>
<path d="M865 10541 c-3 -5 -2 -12 3 -15 5 -3 9 1 9 9 0 17 -3 19 -12 6z"/>
<path d="M885 10761 c-3 -5 -2 -12 3 -15 5 -3 9 1 9 9 0 17 -3 19 -12 6z"/>
<path d="M10521 11190 c-6 -4 -53 -175 -67 -245 -2 -11 -27 -114 -55 -230 -27
-115 -52 -219 -55 -230 -2 -11 -15 -65 -28 -120 -14 -55 -36 -147 -50 -205
-14 -58 -44 -181 -66 -275 -23 -93 -44 -181 -46 -195 -3 -14 -10 -43 -16 -65
-5 -22 -12 -47 -13 -55 -7 -33 -76 -317 -85 -350 -9 -32 -76 -312 -122 -510
-11 -47 -21 -92 -23 -100 -21 -83 -71 -286 -90 -370 -14 -58 -28 -115 -31
-126 l-6 -22 436 0 c240 -1 436 2 436 6 0 4 7 43 15 87 8 44 18 100 21 125 3
25 10 61 15 80 5 19 9 47 9 63 0 15 3 28 8 28 4 1 130 2 281 3 311 1 283 10
295 -90 3 -27 8 -62 11 -79 5 -31 10 -61 21 -130 3 -22 8 -47 9 -55 2 -8 4
-20 4 -27 1 -8 113 -11 436 -11 l435 0 -5 21 c-8 38 -63 296 -96 452 -35 170
-99 472 -104 495 -11 49 -163 770 -171 810 -3 14 -18 86 -34 160 -16 74 -31
146 -34 160 -2 14 -9 48 -16 75 -6 28 -29 133 -50 235 -22 102 -51 238 -65
303 -13 65 -27 128 -29 140 -2 12 -9 42 -15 67 -14 64 -21 100 -28 143 -3 20
-8 38 -12 38 -20 4 -1014 3 -1020 -1z m504 -864 c4 -44 8 -102 10 -130 2 -27
7 -72 10 -98 3 -26 8 -72 11 -100 3 -29 7 -69 10 -88 2 -19 6 -55 9 -80 3 -25
7 -61 9 -80 3 -19 7 -55 10 -80 13 -108 18 -146 21 -160 2 -8 7 -39 10 -69 4
-30 9 -63 11 -75 2 -12 7 -43 10 -71 3 -27 10 -68 15 -90 5 -22 9 -46 9 -52 0
-10 -42 -13 -175 -13 -96 0 -175 1 -175 3 0 2 46 266 55 317 3 14 10 52 16 85
6 33 13 69 14 80 7 53 15 112 19 130 4 21 14 87 22 140 2 17 6 41 9 55 2 14 7
45 10 70 3 25 7 61 10 80 5 35 9 67 20 165 3 28 8 59 10 70 2 11 4 33 4 49 2
50 8 24 16 -58z"/>
<path d="M13318 11195 c-2 -1 -35 -6 -74 -9 -39 -4 -84 -10 -100 -14 -16 -5
-36 -8 -44 -7 -8 1 -20 -2 -26 -7 -6 -4 -26 -9 -45 -10 -19 -2 -40 -9 -47 -15
-7 -7 -20 -14 -28 -14 -25 -2 -64 -18 -134 -53 -126 -64 -171 -95 -279 -191
-242 -216 -406 -545 -457 -914 -3 -25 -8 -57 -10 -71 -3 -14 -7 -88 -9 -164
-3 -77 -7 -142 -10 -144 -2 -3 0 -13 5 -23 7 -12 7 -20 0 -24 -8 -5 -7 -12 2
-23 11 -13 11 -14 -1 -7 -11 6 -12 5 -5 -6 5 -8 9 -32 10 -54 1 -46 12 -132
20 -157 3 -11 0 -18 -8 -18 -10 0 -11 -2 0 -8 7 -5 14 -28 17 -53 2 -24 5 -46
6 -49 1 -3 3 -9 4 -15 6 -34 58 -204 74 -240 101 -237 217 -398 386 -541 208
-176 443 -262 730 -269 172 -5 272 12 478 77 53 17 67 26 68 42 3 76 12 245
24 416 2 30 6 109 10 175 3 66 8 146 10 178 l3 58 -41 -34 c-81 -65 -135 -98
-140 -84 -3 7 -6 5 -6 -5 -1 -14 -17 -24 -51 -33 -3 -1 -18 -7 -35 -14 -53
-23 -78 -26 -185 -25 -95 1 -111 4 -172 32 -158 72 -259 223 -310 462 -23 109
-32 367 -17 490 15 116 55 255 99 339 95 180 224 270 405 277 79 3 182 -17
196 -38 3 -5 10 -9 15 -9 23 2 97 -39 124 -69 3 -4 22 -19 43 -34 l37 -28 0
429 0 429 -62 17 c-35 10 -74 20 -88 23 -14 2 -36 7 -50 9 -69 14 -94 17 -207
19 -67 2 -123 2 -125 1z"/>
<path d="M14055 11192 c-2 -3 -4 -701 -5 -1553 l0 -1549 420 0 420 0 1 23 c0
12 1 293 1 625 l1 602 199 0 198 0 0 -625 0 -624 420 -1 420 0 0 1553 0 1552
-420 0 -420 0 0 -552 c0 -304 -3 -553 -7 -554 -25 -3 -361 -4 -374 -1 -14 3
-16 57 -15 553 1 302 -1 550 -4 550 -13 4 -832 4 -835 1z"/>
<path d="M1611 8379 c-393 -45 -732 -296 -854 -635 -35 -97 -39 -121 -43 -269
-2 -86 2 -152 11 -196 70 -326 301 -557 745 -743 63 -26 124 -52 135 -57 11
-5 78 -33 150 -64 399 -170 543 -352 521 -659 -24 -356 -320 -586 -684 -531
-26 4 -48 7 -49 6 -8 -2 -120 44 -160 67 -66 37 -152 127 -190 198 -43 81 -89
256 -98 369 -1 13 -3 12 -165 -24 -74 -16 -146 -32 -160 -35 -14 -2 -55 -11
-91 -20 -37 -8 -79 -17 -94 -20 -15 -3 -29 -7 -32 -9 -7 -8 36 -201 63 -283
74 -222 197 -405 357 -533 108 -85 216 -140 357 -181 119 -34 174 -42 327 -45
183 -3 366 29 493 87 96 43 110 51 178 96 259 174 436 444 477 729 3 23 8 57
11 75 7 51 6 227 -1 283 -35 269 -160 485 -375 651 -105 81 -145 105 -300 180
-135 66 -123 61 -269 119 -344 138 -436 188 -519 279 -66 72 -94 142 -95 235
-2 243 214 428 504 432 140 2 239 -26 335 -95 44 -32 138 -145 167 -202 23
-45 40 -51 76 -25 16 12 31 21 34 21 2 0 75 43 162 95 87 52 161 95 165 95 4
0 13 6 19 14 28 34 -212 326 -344 418 -112 77 -273 147 -381 164 -21 3 -42 8
-46 11 -15 8 -264 10 -337 2z"/>
<path d="M4887 7870 c-10 -4 -12 -229 -11 -1070 1 -1160 1 -1160 59 -1328 95
-279 300 -510 570 -644 168 -84 308 -113 540 -111 326 2 580 108 809 338 159
159 275 388 301 594 4 30 9 63 11 75 7 30 8 2136 1 2142 -5 5 -124 7 -358 5
l-106 -1 0 -978 c-1 -835 -4 -1052 -18 -1152 -38 -270 -183 -461 -412 -543
-198 -72 -453 -48 -616 56 -189 121 -279 290 -304 572 -4 38 -7 514 -7 1058
-1 871 -3 987 -16 988 -84 3 -434 3 -443 -1z"/>
<path d="M7455 7872 l-30 -3 0 -1549 0 -1550 75 -1 c490 -7 881 3 1025 26 17
3 48 7 70 11 35 5 61 10 136 28 52 13 105 30 114 38 5 4 15 8 22 8 14 0 151
66 228 110 141 79 333 255 447 408 124 167 231 416 253 586 3 21 7 41 9 45 9
14 20 187 20 296 0 100 -10 248 -19 292 -74 366 -192 595 -420 817 -286 280
-605 407 -1085 432 -120 7 -793 11 -845 6z m900 -454 c271 -45 429 -101 570
-202 211 -152 377 -429 410 -685 4 -30 9 -63 11 -75 6 -29 5 -232 -1 -281 -25
-194 -80 -343 -178 -490 -52 -77 -195 -220 -273 -272 -163 -111 -257 -145
-514 -188 -19 -3 -135 -9 -257 -12 -186 -5 -223 -3 -224 8 -4 40 -5 2195 -1
2202 5 11 389 6 457 -5z"/>
<path d="M9762 7870 c-17 -4 -9 -23 71 -160 49 -85 101 -176 116 -202 48 -85
137 -240 286 -498 81 -140 157 -273 169 -295 13 -22 76 -132 141 -245 65 -113
139 -241 163 -284 l45 -80 -1 -668 0 -668 46 0 c85 -1 387 -1 407 -1 20 1 20
8 19 668 -1 633 0 670 18 701 23 41 73 129 170 297 41 72 119 207 173 300 54
94 106 184 115 200 10 17 94 163 188 325 93 162 210 365 260 450 49 85 88 157
87 158 -3 3 -418 5 -510 3 -25 -1 -34 -9 -55 -49 -14 -26 -70 -123 -124 -217
-55 -93 -107 -185 -118 -202 -10 -18 -26 -48 -36 -65 -134 -236 -387 -676
-395 -686 -9 -12 -23 9 -162 253 -12 22 -78 137 -145 255 -68 118 -131 229
-140 245 -10 17 -31 54 -49 83 -17 29 -31 55 -31 57 0 3 -18 34 -40 70 -22 36
-40 67 -40 69 0 2 -17 33 -38 67 -21 35 -44 76 -51 92 -12 22 -21 27 -53 28
-261 3 -471 3 -486 -1z"/>
</g>
</svg>
