<?xml version="1.0" encoding="iso-8859-1"?>
<!-- Generator: Adobe Illustrator 18.1.1, SVG Export Plug-In . SVG Version: 6.00 Build 0)  -->
<svg version="1.1" id="Capa_1" xmlns="http://www.w3.org/2000/svg" xmlns:xlink="http://www.w3.org/1999/xlink" x="0px" y="0px"
	 viewBox="0 0 478.165 478.165" style="enable-background:new 0 0 478.165 478.165;" xml:space="preserve">
<g>
	<path id="Podcast_2_" d="M0.478,257.771C0.418,254.483,0,251.276,0,248.008C0,111.114,106.989,0,239.082,0
		s239.082,111.114,239.082,248.008c0,3.267-0.418,6.475-0.458,9.743C472.686,125.359,368.008,19.406,239.082,19.406
		C110.217,19.406,5.539,125.359,0.478,257.771z M239.082,109.54c80.431,0,146.219,65.329,151.18,147.713
		c0.08-3.208,0.239-6.336,0.239-9.563c0-86.807-67.78-157.117-151.419-157.117c-83.619,0-151.479,70.31-151.479,157.117
		c0,3.208,0.359,6.356,0.478,9.563C92.744,174.869,158.551,109.54,239.082,109.54z M239.082,155.523
		c-27.355,0-49.55,23.091-49.55,51.562c0,28.311,22.215,51.542,49.55,51.542c27.494,0,49.59-23.231,49.59-51.542
		C288.672,178.614,266.577,155.523,239.082,155.523z M239.082,262.851c-39.887,0-72.322,2.251-72.322,77.981
		c0,75.789,32.436,137.333,72.322,137.333c40.066,0,72.322-61.544,72.322-137.333C311.405,265.122,279.149,262.851,239.082,262.851z
		"/>
</g>
<g>
</g>
<g>
</g>
<g>
</g>
<g>
</g>
<g>
</g>
<g>
</g>
<g>
</g>
<g>
</g>
<g>
</g>
<g>
</g>
<g>
</g>
<g>
</g>
<g>
</g>
<g>
</g>
<g>
</g>
</svg>
